<svg width="63" height="36" viewBox="0 0 63 36" fill="none" xmlns="http://www.w3.org/2000/svg">
	<path
		d="M0.508 1.4H15.484V2.312H12.7V17.192H22.252V2.312H19.42V1.4H34.444V2.312H31.612V34.088H34.444V35H19.42V34.088H22.252V18.44H12.7V34.088H15.484V35H0.508V34.088H3.34V2.312H0.508V1.4ZM51.0531 34.472C52.6531 34.472 54.0611 34.04 55.2771 33.176C56.5251 32.312 57.1491 31.016 57.1491 29.288C57.1491 27.528 56.4771 26.184 55.1331 25.256C53.8211 24.328 51.9331 23.528 49.4691 22.856C47.0371 22.152 45.2611 21.544 44.1411 21.032C43.0531 20.52 42.0131 19.848 41.0211 19.016C39.0371 17.352 38.0451 14.776 38.0451 11.288C38.0451 8.44 39.0531 5.992 41.0691 3.944C43.1171 1.896 45.9011 0.871999 49.4211 0.871999C51.1171 0.871999 52.8771 1.128 54.7011 1.64C56.5571 2.12 57.7091 2.36 58.1571 2.36C58.6051 2.36 59.0051 2.04 59.3571 1.4H59.8851L60.2211 11.096H59.4531C57.9171 8.312 56.3011 6.088 54.6051 4.424C52.9411 2.728 51.1171 1.88 49.1331 1.88C47.1811 1.88 45.6611 2.344 44.5731 3.272C43.4851 4.168 42.9411 5.384 42.9411 6.92C42.9411 8.424 43.5811 9.592 44.8611 10.424C46.1731 11.224 47.7731 11.88 49.6611 12.392C51.5491 12.904 52.7811 13.256 53.3571 13.448C53.9651 13.64 54.7011 13.912 55.5651 14.264C56.4611 14.584 57.1811 14.936 57.7251 15.32C58.3011 15.672 58.8931 16.136 59.5011 16.712C60.1411 17.256 60.6371 17.864 60.9891 18.536C61.8531 20.072 62.2851 21.896 62.2851 24.008C62.2851 27.464 61.1971 30.248 59.0211 32.36C56.8771 34.44 54.0451 35.48 50.5251 35.48C48.7011 35.48 46.6051 35.24 44.2371 34.76C41.9011 34.28 40.6051 34.04 40.3491 34.04C39.9011 34.04 39.4691 34.52 39.0531 35.48H38.3811L37.9011 24.056H38.7171C40.1251 26.84 41.9171 29.272 44.0931 31.352C46.3011 33.432 48.6211 34.472 51.0531 34.472Z"
		fill="#FFA082"
	/>
</svg>
